# xmcd
# 
# Track frame offsets:
#     150
#     19718
#     50758
#     88542
#     127256
#     159671
#     196293
#     225499
#     255831
#     308660
# 
# Disc length: 4317
# 
# Revision: 0
# Processed by: cddbd v1.5.2PL0 Copyright (c) Steve Scherf et al.
# Submitted via: fre:ac v1.0.27
# 
DISCID=7910db0a
DTITLE=Florian Ross - Blinds and Shades
DYEAR=2004
DGENRE=Jazz
TTITLE0=Soundcheck
TTITLE1=toss and turn
TTITLE2=ev'ry now and then (pause and think again)
TTITLE3=Getting there is half the fun
TTITLE4=grande tristesse
TTITLE5=farewell
TTITLE6=bookend
TTITLE7=julia
TTITLE8=bye bye blackbird
TTITLE9=goodbye
EXTD=YEAR: 2004
EXTT0=
EXTT1=
EXTT2=
EXTT3=
EXTT4=
EXTT5=
EXTT6=
EXTT7=
EXTT8=
EXTT9=
PLAYORDER=
